<svg version="1.0" xmlns="http://www.w3.org/2000/svg" viewBox="0 250 700.000000 70.000000" preserveAspectRatio="xMidYMid meet">
<metadata>
Created by potrace 1.12, written by Peter Selinger 2001-2015
</metadata>
<g transform="translate(0.000000,700.000000) scale(0.100000,-0.100000)" fill="#626468" stroke="none">
<path d="M960 5601 c-58 -18 -110 -53 -163 -111 -44 -47 -61 -75 -77 -126 -20
-65 -20 -85 -20 -1740 l0 -1673 24 -65 c42 -116 117 -188 235 -226 64 -20 78
-20 2541 -20 2463 0 2477 0 2541 20 118 38 193 110 235 226 l24 65 0 1674 0
1675 -22 66 c-26 81 -104 171 -182 212 l-51 27 -2530 2 c-1392 1 -2541 -2
-2555 -6z m4754 -343 c41 -15 71 -36 109 -78 77 -83 88 -123 85 -305 l-3 -150
-1003 -3 -1003 -2 -9 -26 c-6 -14 -10 -38 -10 -53 0 -42 -54 -141 -102 -188
-24 -23 -72 -57 -108 -75 -58 -29 -74 -32 -150 -32 -198 -1 -355 129 -378 310
l-7 59 -1014 5 -1014 5 2 150 c1 83 7 168 12 189 25 93 109 176 209 207 14 4
993 8 2177 8 l2151 1 56 -22z m-1989 -1462 c163 -71 211 -102 300 -191 73 -73
98 -106 132 -176 68 -139 78 -185 78 -344 0 -125 -3 -149 -27 -225 -89 -277
-337 -482 -618 -511 -169 -18 -285 4 -446 83 -50 24 -94 57 -160 123 -98 97
-146 171 -191 296 -24 67 -26 88 -27 229 -1 138 2 162 22 223 93 267 280 436
567 511 11 2 90 4 175 2 121 -2 164 -6 195 -20z"></path>
<path d="M3630 3195 l-215 -215 -105 105 -105 105 -65 -65 -65 -65 165 -165
c91 -91 169 -165 175 -165 14 0 555 543 554 555 -1 6 -29 36 -63 67 l-62 57
-214 -214z"></path>
</g>
</svg>